HIERARCHY
ROOT hip
{
  OFFSET 0 0 0
  CHANNELS 6 Xposition Yposition Zposition Zrotation Yrotation Xrotation
  JOINT abdomen
  {
    OFFSET 0 20.6881 -0.73152
    CHANNELS 3 Zrotation Xrotation Yrotation
    JOINT chest
    {
      OFFSET 0 11.7043 -0.48768
      CHANNELS 3 Zrotation Xrotation Yrotation
      JOINT neck
      {
        OFFSET 0 22.1894 -2.19456
        CHANNELS 3 Zrotation Xrotation Yrotation
        JOINT head
        {
          OFFSET -0.24384 7.07133 1.2192
          CHANNELS 3 Zrotation Xrotation Yrotation
          JOINT leftEye
          {
            OFFSET 4.14528 8.04674 8.04672
            CHANNELS 3 Zrotation Xrotation Yrotation
            End Site
            {
              OFFSET 1 0 0
            }
          }
          JOINT rightEye
          {
            OFFSET -3.6576 8.04674 8.04672
            CHANNELS 3 Zrotation Xrotation Yrotation
            End Site
            {
              OFFSET 1 0 0
            }
          }
        }
      }
      JOINT rCollar
      {
        OFFSET -2.68224 19.2634 -4.8768
        CHANNELS 3 Zrotation Xrotation Yrotation
        JOINT rShldr
        {
          OFFSET -8.77824 -1.95073 1.46304
          CHANNELS 3 Zrotation Xrotation Yrotation
          JOINT rForeArm
          {
            OFFSET -28.1742 -1.7115 0.48768
            CHANNELS 3 Zrotation Xrotation Yrotation
            JOINT rHand
            {
              OFFSET -22.5879 0.773209 7.07136
              CHANNELS 3 Zrotation Xrotation Yrotation
              JOINT rThumb1
              {
                OFFSET -1.2192 -0.487915 3.41376
                CHANNELS 3 Zrotation Xrotation Yrotation
                JOINT rThumb2
                {
                  OFFSET -3.37035 -0.52449 3.41376
                  CHANNELS 3 Zrotation Xrotation Yrotation
                  End Site
                  {
                    OFFSET -1.78271 -1.18214 1.43049
                  }
                }
              }
              JOINT rIndex1
              {
                OFFSET -7.75947 0.938293 5.60832
                CHANNELS 3 Zrotation Xrotation Yrotation
                JOINT rIndex2
                {
                  OFFSET -2.54057 -0.884171 1.56538
                  CHANNELS 3 Zrotation Xrotation Yrotation
                  End Site
                  {
                    OFFSET -1.62519 -0.234802 1.16502
                  }
                }
              }
              JOINT rMid1
              {
                OFFSET -8.24714 1.18213 3.41376
                CHANNELS 3 Zrotation Xrotation Yrotation
                JOINT rMid2
                {
                  OFFSET -3.10165 -0.590103 1.0647
                  CHANNELS 3 Zrotation Xrotation Yrotation
                  End Site
                  {
                    OFFSET -2.48547 -0.328903 0.83742
                  }
                }
              }
              JOINT rRing1
              {
                OFFSET -8.82822 0.546677 1.51678
                CHANNELS 3 Zrotation Xrotation Yrotation
                JOINT rRing2
                {
                  OFFSET -2.60934 -0.819778 -0.0198488
                  CHANNELS 3 Zrotation Xrotation Yrotation
                  End Site
                  {
                    OFFSET -2.33842 -0.294052 0.168128
                  }
                }
              }
              JOINT rPinky1
              {
                OFFSET -8.27202 -0.0477905 -0.4584
                CHANNELS 3 Zrotation Xrotation Yrotation
                JOINT rPinky2
                {
                  OFFSET -1.82734 -0.647385 -0.700984
                  CHANNELS 3 Zrotation Xrotation Yrotation
                  End Site
                  {
                    OFFSET -1.69225 -0.51767 -0.607171
                  }
                }
              }
            }
          }
        }
      }
      JOINT lCollar
      {
        OFFSET 2.68224 19.2634 -4.8768
        CHANNELS 3 Zrotation Xrotation Yrotation
        JOINT lShldr
        {
          OFFSET 8.77824 -1.95073 1.46304
          CHANNELS 3 Zrotation Xrotation Yrotation
          JOINT lForeArm
          {
            OFFSET 28.1742 -1.7115 0.48768
            CHANNELS 3 Zrotation Xrotation Yrotation
            JOINT lHand
            {
              OFFSET 22.5879 0.773209 7.07136
              CHANNELS 3 Zrotation Xrotation Yrotation
              JOINT lThumb1
              {
                OFFSET 1.2192 -0.487915 3.41376
                CHANNELS 3 Zrotation Xrotation Yrotation
                JOINT lThumb2
                {
                  OFFSET 3.37035 -0.52449 3.41376
                  CHANNELS 3 Zrotation Xrotation Yrotation
                  End Site
                  {
                    OFFSET 1.78271 -1.18214 1.43049
                  }
                }
              }
              JOINT lIndex1
              {
                OFFSET 7.75947 0.938293 5.60832
                CHANNELS 3 Zrotation Xrotation Yrotation
                JOINT lIndex2
                {
                  OFFSET 2.54057 -0.884171 1.56538
                  CHANNELS 3 Zrotation Xrotation Yrotation
                  End Site
                  {
                    OFFSET 1.62519 -0.234802 1.16502
                  }
                }
              }
              JOINT lMid1
              {
                OFFSET 8.24714 1.18213 3.41376
                CHANNELS 3 Zrotation Xrotation Yrotation
                JOINT lMid2
                {
                  OFFSET 3.10165 -0.590103 1.0647
                  CHANNELS 3 Zrotation Xrotation Yrotation
                  End Site
                  {
                    OFFSET 2.48547 -0.328903 0.83742
                  }
                }
              }
              JOINT lRing1
              {
                OFFSET 8.82822 0.546677 1.51678
                CHANNELS 3 Zrotation Xrotation Yrotation
                JOINT lRing2
                {
                  OFFSET 2.60934 -0.819778 -0.0198488
                  CHANNELS 3 Zrotation Xrotation Yrotation
                  End Site
                  {
                    OFFSET 2.33842 -0.294052 0.168128
                  }
                }
              }
              JOINT lPinky1
              {
                OFFSET 8.27202 -0.0477905 -0.4584
                CHANNELS 3 Zrotation Xrotation Yrotation
                JOINT lPinky2
                {
                  OFFSET 1.82734 -0.647385 -0.700984
                  CHANNELS 3 Zrotation Xrotation Yrotation
                  End Site
                  {
                    OFFSET 1.69225 -0.51767 -0.607171
                  }
                }
              }
            }
          }
        }
      }
    }
  }
  JOINT rButtock
  {
    OFFSET -8.77824 4.35084 1.2192
    CHANNELS 3 Zrotation Xrotation Yrotation
    JOINT rThigh
    {
      OFFSET 0 -1.70687 -2.19456
      CHANNELS 3 Zrotation Xrotation Yrotation
      JOINT rShin
      {
        OFFSET 0 -36.8199 0.73152
        CHANNELS 3 Zrotation Xrotation Yrotation
        JOINT rFoot
        {
          OFFSET 0.73152 -45.1104 -5.12064
          CHANNELS 3 Zrotation Xrotation Yrotation
          End Site
          {
            OFFSET -1.1221 -3.69964 12.103
          }
        }
      }
    }
  }
  JOINT lButtock
  {
    OFFSET 8.77824 4.35084 1.2192
    CHANNELS 3 Zrotation Xrotation Yrotation
    JOINT lThigh
    {
      OFFSET 0 -1.70687 -2.19456
      CHANNELS 3 Zrotation Xrotation Yrotation
      JOINT lShin
      {
        OFFSET 0 -36.8199 0.73152
        CHANNELS 3 Zrotation Xrotation Yrotation
        JOINT lFoot
        {
          OFFSET -0.73152 -45.1104 -5.12064
          CHANNELS 3 Zrotation Xrotation Yrotation
          End Site
          {
            OFFSET 1.1221 -3.69964 12.103
          }
        }
      }
    }
  }
}
MOTION
Frames:	4
Frame Time:	0.03333
-131.2799 68.5761 104.2336 171.116346 -14.695827 -172.758688 3.226535 -2.637511 180.0 6.134462 -0.602069 -165.03993 -17.003729 13.940419 -83.313284 27.690527 20.696963 60.689256 -24.990971 3.670712 -16.45531 -0.40074 -0.073972 20.916894 1.423531 -0.591388 -0.324399 -172.410475 -52.859591 94.987758 175.846444 30.850728 -116.6442 -10.909717 -0.778308 -2.959723 -2.019618 -3.521399 -2.142288 -2.493524 -51.585167 -92.426716 -26.528828 44.408274 32.005872 -18.744435 14.974508 -7.176176 -92.773692 62.756855 80.494953 70.577376 -55.451617 43.2846 -154.12874 -6.776384 163.129465 -124.435732 14.617173 152.358843 -93.33252 -42.395582 -63.471374 37.11474 -8.522192 -17.475637 -3.68928 -18.268876 1.320076 -6.655755 -75.388254 -6.720675 -102.998585 -73.367286 70.113521 177.896156 19.307237 -139.894465 -93.061435 -45.927676 -33.385837 146.986086 15.44512 -93.25297 143.992268 -9.672754 -112.019748 162.379618 48.047839 -103.204249 57.76763 34.656424 -44.62381 40.597254 62.169824 -108.93892 -3.736728 -0.259696 -1.520722 -25.353348 3.487255 -12.580106 53.885701 -53.467035 21.472415 -35.543744 43.335165 56.592731 23.983878 4.496818 23.715927 -116.312448 -22.197023 79.418048 175.032708 -25.029766 -125.9752 163.90426 -12.424166 -105.037372 -1.227609 2.121959 1.623183 -7.556032 -11.280681 -1.634401 16.66713 41.679228 92.822239 -20.190504 -2.551028 -87.70885
-132.70360000000002 68.3374 105.9479 170.201881 -14.9717 -172.879131 -0.488607 -3.599389 173.790031 4.354791 -2.392867 -157.813881 3.490989 9.83654 105.747563 -20.678087 2.018759 -120.712008 -26.013012 4.946238 -21.182125 -1.64009 -0.352098 24.23139 -0.287465 -0.402386 2.10132 -135.541027 -41.093865 117.28714 90.280511 13.067503 -111.063865 -90.549196 63.717182 67.519185 -11.66345 9.417753 -1.671147 -69.879121 19.846424 116.976061 -126.0724 -14.676464 127.680631 -149.56474 -79.470438 134.010703 -170.087178 -21.361782 140.511309 -171.640348 35.813051 133.186148 -1.429355 -4.847962 20.623128 125.47999 52.974475 -149.120294 1.268501 57.168946 -4.558643 -170.346137 -26.210134 173.280857 145.329348 28.545287 -153.22308 151.654195 -1.498219 -173.768527 -157.974469 -3.070922 0.228587 168.583351 41.609085 -138.197909 -6.335375 5.32578 -3.865442 141.670212 -85.224881 -155.623699 4.889729 11.887137 -9.670175 -153.763238 -50.569295 -52.362483 -86.860983 -60.539711 -67.347243 -165.638405 -39.621911 146.568421 61.798799 77.902726 -85.176154 68.922386 59.090257 -42.485386 168.103197 1.695299 157.949031 40.114656 28.039866 -59.222302 -0.744005 -0.312549 0.952608 -91.951453 -45.143666 88.616392 -166.349429 -35.122702 38.835003 -115.917594 15.657122 20.589235 -3.050713 2.910053 -1.56597 -4.154503 -15.079251 -180.0 -0.877339 -44.598227 67.063599 156.332262 -11.057565 -146.529083
-133.4372 68.9333 107.6576 170.278678 -16.506759 -172.957429 -2.85567 -3.229057 180.0 2.963104 -2.704821 -162.51846 -10.930254 -1.909523 -29.390211 18.180098 1.02572 14.401037 -24.48774 4.784596 -21.794075 -1.557646 -0.370003 26.723241 -164.656636 -49.249291 165.696063 102.490833 23.244788 -88.040477 -160.269657 -67.182015 100.364541 -171.601912 -3.74566 141.883952 -85.087702 44.744503 48.410528 37.585631 -8.305575 53.211305 -155.826336 -73.296142 118.915499 -45.718986 40.178767 66.874642 7.701389 -15.565768 2.656954 -77.663352 70.614228 85.205297 -126.93447 30.684579 143.768724 -5.342743 -71.738879 -94.135125 -173.91375 6.745922 -128.503152 -93.363224 -6.426364 -39.336039 125.676062 -79.088124 153.231093 -65.956649 -65.203409 -51.701805 105.306898 50.115336 83.330269 -53.315669 -67.55291 -39.516005 -12.191288 -1.021117 0.616662 148.722115 -43.944346 -125.871408 0.615959 8.148031 -4.174295 63.084714 26.133931 -81.812111 154.89614 9.639195 -117.46144 -23.880179 -11.341459 -87.309107 133.400563 -22.055269 161.992345 -36.176917 18.097089 48.157591 90.577327 66.081049 -110.908735 -26.792756 -63.219175 12.959707 -162.988558 74.475126 -11.356391 133.918008 -8.562937 -81.840783 -135.373655 17.48071 79.053278 150.014975 -7.812418 -8.026538 -1.030721 4.215504 1.397669 -4.892222 -14.4521 -18.930078 1.87688 46.844954 137.244976 -28.946617 -2.544992 -113.534956
-133.6889 69.5188 109.34660000000001 170.96493 -18.799403 -172.608572 -0.390258 0.00717 -90.025725 2.071025 -6.259983 108.65251 9.02607 2.580319 94.105405 -10.164516 5.789418 -107.008486 -20.380753 2.99122 -16.528725 -1.741569 -0.465687 29.938711 -162.92988 -30.292663 164.409625 -69.896232 -11.797042 -73.110395 24.340918 68.33569 -116.553179 -164.31002 12.07514 138.341549 69.479205 -55.943802 17.283061 -144.653464 10.306215 136.37452 48.612277 -35.542007 -8.970898 177.162828 -2.172997 85.622736 -147.969436 9.711442 140.188276 -167.644658 -4.286828 150.614848 -146.799734 -5.845939 165.975276 63.070604 21.124678 34.485618 -24.05108 19.203252 -8.58 96.452019 -47.323802 65.18761 -4.37614 -8.46225 8.025879 -71.748334 -73.869123 -73.845951 -74.775333 -79.392786 92.883347 -179.19929 6.392282 -146.568911 5.211544 17.240082 -0.809501 -4.920658 -20.736857 3.745371 -70.396579 -75.202047 -22.865183 -35.978897 -0.061034 43.79577 9.861756 -1.986975 -21.314434 43.4106 -28.955705 118.603488 53.816488 82.035701 -75.835894 28.990033 30.971292 -8.767279 152.904607 -39.423885 155.088478 177.411843 -63.350689 157.545952 3.171197 2.901651 -4.240338 -73.038328 -51.380881 -157.138711 -124.729428 10.939869 14.033677 97.375895 57.570412 7.682122 -0.716709 5.403393 7.567113 -6.06233 -16.330711 27.810515 43.314788 23.894138 73.237805 -48.44353 -31.894002 -129.888965
